HIERARCHY
ROOT Hips
{
	OFFSET 0.00000 0.00000 0.00000
	CHANNELS 6 Xposition Yposition Zposition Zrotation Yrotation Xrotation 
	JOINT LHipJoint
	{
		OFFSET 0 0 0
		CHANNELS 3 Zrotation Yrotation Xrotation
		JOINT LeftUpLeg
		{
			OFFSET 1.37590 -1.78394 0.89329
			CHANNELS 3 Zrotation Yrotation Xrotation
			JOINT LeftLeg
			{
				OFFSET 2.47928 -6.81178 0.00000
				CHANNELS 3 Zrotation Yrotation Xrotation
				JOINT LeftFoot
				{
					OFFSET 2.63345 -7.23535 0.00000
					CHANNELS 3 Zrotation Yrotation Xrotation
					JOINT LeftToeBase
					{
						OFFSET 0.23938 -0.65768 2.27012
						CHANNELS 3 Zrotation Yrotation Xrotation
						End Site
						{
							OFFSET 0.00000 -0.00000 1.18363
						}
					}
				}
			}
		}
	}
	JOINT RHipJoint
	{
		OFFSET 0 0 0
		CHANNELS 3 Zrotation Yrotation Xrotation
		JOINT RightUpLeg
		{
			OFFSET -1.33617 -1.78394 0.89329
			CHANNELS 3 Zrotation Yrotation Xrotation
			JOINT RightLeg
			{
				OFFSET -2.56922 -7.05888 0.00000
				CHANNELS 3 Zrotation Yrotation Xrotation
				JOINT RightFoot
				{
					OFFSET -2.56568 -7.04915 0.00000
					CHANNELS 3 Zrotation Yrotation Xrotation
					JOINT RightToeBase
					{
						OFFSET -0.27533 -0.75646 2.18105
						CHANNELS 3 Zrotation Yrotation Xrotation
						End Site
						{
							OFFSET -0.00000 -0.00000 1.15233
						}
					}
				}
			}
		}
	}
	JOINT LowerBack
	{
		OFFSET 0 0 0
		CHANNELS 3 Zrotation Yrotation Xrotation
		JOINT Spine
		{
			OFFSET 0.06190 2.15152 -0.00935
			CHANNELS 3 Zrotation Yrotation Xrotation
			JOINT Spine1
			{
				OFFSET 0.06334 2.15332 0.00872
				CHANNELS 3 Zrotation Yrotation Xrotation
				JOINT Neck
				{
					OFFSET 0 0 0
					CHANNELS 3 Zrotation Yrotation Xrotation
					JOINT Neck1
					{
						OFFSET -0.04202 1.66908 0.23524
						CHANNELS 3 Zrotation Yrotation Xrotation
						JOINT Head
						{
							OFFSET 0.07510 1.69357 -0.24440
							CHANNELS 3 Zrotation Yrotation Xrotation
							End Site
							{
								OFFSET 0.02556 1.71719 -0.11000
							}
						}
					}
				}
				JOINT LeftShoulder
				{
					OFFSET 0 0 0
					CHANNELS 3 Zrotation Yrotation Xrotation
					JOINT LeftArm
					{
						OFFSET 3.67168 1.26306 -0.41342
						CHANNELS 3 Zrotation Yrotation Xrotation
						JOINT LeftForeArm
						{
							OFFSET 4.68510 -0.00000 -0.00000
							CHANNELS 3 Zrotation Yrotation Xrotation
							JOINT LeftHand
							{
								OFFSET 3.39626 -0.00000 -0.00000
								CHANNELS 3 Zrotation Yrotation Xrotation
								JOINT LeftFingerBase
								{
									OFFSET 0 0 0
									CHANNELS 3 Zrotation Yrotation Xrotation
									JOINT LeftHandIndex1
									{
										OFFSET 0.48608 -0.00000 -0.00000
										CHANNELS 3 Zrotation Yrotation Xrotation
										End Site
										{
											OFFSET 0.39189 -0.00000 -0.00000
										}
									}
								}
								JOINT LThumb
								{
									OFFSET 0 0 0
									CHANNELS 3 Zrotation Yrotation Xrotation
									End Site
									{
										OFFSET 0.39787 -0.00000 0.39787
									}
								}
							}
						}
					}
				}
				JOINT RightShoulder
				{
					OFFSET 0 0 0
					CHANNELS 3 Zrotation Yrotation Xrotation
					JOINT RightArm
					{
						OFFSET -3.04136 1.42992 -0.76390
						CHANNELS 3 Zrotation Yrotation Xrotation
						JOINT RightForeArm
						{
							OFFSET -5.55576 -0.00000 -0.00000
							CHANNELS 3 Zrotation Yrotation Xrotation
							JOINT RightHand
							{
								OFFSET -3.32774 -0.00000 -0.00000
								CHANNELS 3 Zrotation Yrotation Xrotation
								JOINT RightFingerBase
								{
									OFFSET 0 0 0
									CHANNELS 3 Zrotation Yrotation Xrotation
									JOINT RightHandIndex1
									{
										OFFSET -0.50763 -0.00000 -0.00000
										CHANNELS 3 Zrotation Yrotation Xrotation
										End Site
										{
											OFFSET -0.40926 -0.00000 -0.00000
										}
									}
								}
								JOINT RThumb
								{
									OFFSET 0 0 0
									CHANNELS 3 Zrotation Yrotation Xrotation
									End Site
									{
										OFFSET -0.41551 -0.00000 0.41551
									}
								}
							}
						}
					}
				}
			}
		}
	}
}
MOTION
Frames: 10
Frame Time: 0.0625
0.00 0.00 0.00 0 0 0 0 0 0 -21 0 0 0 0 0 0 0 0 0 0 0 0 0 0 21 0 0 0 0 0 0 0 0 0 0 0 0 0 0 0 0 0 0 0 0 0 0 -16 0 0 21 0 0 11 0 0 0 -8 0 0 0 0 0 0 0 0 0 0 0 0 0 0 0 0 0 0 0 0 8 0 0 0 0 0 0 0 0 0 0 0 0 0 0 0 0 0
0.00 0.00 0.00 -25.6423 -86.9211 31.8790 0.0000 0.0000 0.0000 -23.4336 -5.6835 -3.8610 0.4624 4.3619 12.0972 0.2136 -5.8395 -8.5989 0.1540 2.5285 6.9687 0.0000 0.0000 0.0000 15.8753 5.8553 -34.0689 -7.4010 -15.6605 50.3751 0.7451 -16.0499 -11.9043 -0.1240 -2.2703 6.2533 -0.5790 -1.2491 -0.4499 2.6987 -1.6843 -0.5182 3.0875 -0.8475 -0.1809 -3.5082 -1.3359 -11.9530 3.2905 -1.8582 16.1755 1.4612 -0.8665 6.9758 0.0000 -0.0000 0.0000 -88.8695 -19.7829 13.2173 48.8124 -52.5052 -25.2288 -0.0000 0.0000 -32.9959 -8.6347 24.5436 -3.6093 -7.1250 0.0000 -0.0000 -37.3955 50.5385 -5.8143 0.0000 -0.0000 0.0000 77.2801 12.8041 9.1326 -71.9559 58.7333 -44.4398 0.0000 -0.0000 -35.2801 1.3665 -24.3721 -0.5640 7.1250 -0.0000 -0.0000 30.8455 -51.5797 -5.4325
0.00 0.00 0.00 -13.5792 -86.1286 20.5671 0.0000 0.0000 0.0000 -24.0502 -5.1701 -1.9526 0.4279 4.1981 11.6348 0.2686 -7.0127 -9.7703 0.1100 2.1390 5.8898 0.0000 0.0000 0.0000 15.1680 7.4281 -35.0143 -3.9273 -12.0630 35.9554 0.8050 -16.2808 -10.9153 -0.0745 -1.7607 4.8448 -1.0350 -1.5273 -0.4010 2.7892 -2.0506 -0.7863 3.4422 -1.0242 -0.4429 -3.2082 -1.0902 -11.9055 3.3131 -1.5633 15.7137 1.4457 -0.7011 6.8057 -0.0000 0.0000 0.0000 -86.8921 -21.2910 20.2119 48.6795 -52.4489 -25.1234 -0.0000 0.0000 -17.6684 -4.7953 23.2749 -1.8986 -7.1250 0.0000 -0.0000 -33.2163 50.0941 -4.6224 -0.0000 0.0000 0.0000 76.9580 13.1917 7.5098 -72.3422 58.7885 -44.7701 0.0000 -0.0000 -25.8798 -1.3909 -24.4886 0.5767 7.1250 -0.0000 -0.0000 28.3954 -52.1413 -5.3469
0.00 0.00 0.00 -5.4088 -85.2433 13.4418 0.0000 0.0000 0.0000 -24.4148 -4.0804 -0.4843 0.4054 4.0874 11.3228 0.2916 -8.5391 -10.5674 0.0914 1.9501 5.3677 0.0000 0.0000 0.0000 14.6613 8.9694 -33.8296 -1.2181 -7.0007 19.7176 0.7893 -15.6027 -7.7408 -0.0451 -1.3699 3.7673 -1.4304 -1.7816 -0.8108 2.8408 -2.3860 -1.1745 3.7110 -1.1850 -0.5710 -2.8985 -0.9766 -11.7914 3.2873 -1.4508 15.3620 1.3957 -0.6299 6.6666 -0.0000 0.0000 0.0000 -84.4742 -21.5387 28.2844 46.2463 -51.3646 -23.2083 -0.0000 0.0000 -2.5200 -0.1297 20.6729 -0.0458 -7.1250 0.0000 -0.0000 -27.5954 48.5373 -2.5910 -0.0000 0.0000 0.0000 76.3014 12.9010 7.3527 -66.3277 57.7729 -39.6525 0.0000 -0.0000 -13.5245 -7.3311 -22.9319 2.8698 7.1250 -0.0000 -0.0000 21.9498 -51.7290 -3.7894
0.00 0.00 0.00 -18.0087 -81.9983 26.7015 0.0000 0.0000 0.0000 -19.7277 -3.9642 3.4728 1.9172 8.6915 24.8350 -0.2691 -10.4470 -1.5519 0.4188 -4.1535 -11.5091 0.0000 0.0000 0.0000 20.9617 12.7701 -26.9233 -0.8728 -5.9565 16.6582 0.4703 -12.9654 0.3510 -1.1433 -6.7900 19.0947 0.9191 -2.2260 -2.2155 4.5386 -3.0545 -2.0419 4.1043 -1.5513 -0.6554 -2.2024 -0.5907 -13.0738 1.8568 -0.8457 17.6927 0.8799 -0.4286 7.6206 -0.0000 0.0000 0.0000 -92.5064 -7.4790 41.4408 16.4210 -26.0881 -3.8292 -0.0000 -0.0000 25.1680 8.3999 17.4656 2.5377 -7.1250 0.0000 -0.0000 -18.4914 46.7477 -0.8250 -0.0000 0.0000 0.0000 78.1852 8.9450 7.8623 -11.2456 18.6637 -1.8537 0.0000 0.0000 17.1005 -6.7869 -23.4161 2.7078 7.1250 -0.0000 -0.0000 22.7247 -52.0853 -4.1401
0.00 0.00 0.00 -25.5214 -79.9710 34.0016 0.0000 0.0000 0.0000 -15.0955 -5.2412 -1.9524 3.7375 11.8027 35.0375 0.1324 -7.6004 13.3245 0.3447 -3.7725 -10.4375 0.0000 0.0000 0.0000 24.8556 11.1152 -22.3979 -0.7406 -5.4975 15.3332 0.4433 -11.9117 -2.0163 -1.3458 -7.3446 20.7404 2.5918 -1.8670 -2.4852 5.1373 -2.6341 -2.2253 3.7903 -1.3681 -0.7675 -2.4987 -0.9263 -13.4254 1.9993 -1.2517 17.6181 0.9332 -0.6221 7.6705 -0.0000 0.0000 0.0000 -95.0557 -2.7541 26.7302 10.7108 -17.8436 -1.6862 -0.0000 -0.0000 38.5881 5.9481 18.3246 1.8761 -7.1250 0.0000 -0.0000 -21.0480 47.2369 -1.2135 -0.0000 0.0000 0.0000 82.0928 5.1332 -16.3260 -6.5410 11.1615 -0.6398 0.0000 0.0000 41.6687 -6.2903 -25.7612 2.7429 7.1250 -0.0000 -0.0000 24.5772 -54.1386 -5.7874
0.00 0.00 0.00 -34.1221 -76.7667 41.3306 0.0000 0.0000 0.0000 -8.2296 -8.4473 -11.6003 7.7560 15.9368 51.6790 0.2683 -8.3136 16.1160 0.3693 -3.9033 -10.8048 0.0000 0.0000 0.0000 30.9354 8.6540 -15.3304 -0.5542 -4.7689 13.2506 0.3979 -11.2382 -6.0380 -1.2193 -7.0041 19.7275 5.3711 -0.9105 -1.9951 5.6334 -1.4275 -1.6526 2.7754 -0.7983 -0.5656 -3.5482 -1.8844 -13.2240 2.8164 -2.4371 16.0360 1.2510 -1.1643 7.1702 -0.0000 -0.0000 0.0000 -91.9044 3.5624 6.8199 8.3246 -14.0777 -1.0296 -0.0000 -0.0000 49.2260 -2.9471 17.8289 -0.9030 -7.1250 0.0000 -0.0000 -28.6298 45.6482 -0.4995 -0.0000 -0.0000 0.0000 88.3182 -4.5489 -19.1223 -6.6172 11.2875 -0.6546 0.0000 0.0000 39.4604 -3.8642 -26.4962 1.7261 7.1250 -0.0000 -0.0000 27.3770 -54.3477 -6.6674
0.00 0.00 0.00 -37.4120 -77.4559 43.3992 0.0000 0.0000 0.0000 -5.0633 -9.9616 -22.8648 10.2313 17.5379 60.2587 -0.0316 -3.2294 0.4334 0.5396 -4.7065 -13.0734 0.0000 0.0000 0.0000 33.4078 6.6079 -8.5141 -0.5202 -4.6225 12.8349 0.1339 -9.2044 -10.3297 -1.0198 -6.4244 18.0210 4.8739 0.3950 -1.5011 5.1342 0.3152 -0.5446 2.5568 0.1055 0.2839 -4.2562 -2.5000 -13.2703 2.8916 -3.1522 16.3416 1.3180 -1.5434 7.3158 -0.0000 0.0000 0.0000 -85.8379 11.6664 -7.8993 9.7864 -16.4048 -1.4140 -0.0000 -0.0000 35.2425 3.4822 18.3597 1.0980 -7.1250 0.0000 -0.0000 -23.2691 46.9446 -1.1786 -0.0000 0.0000 0.0000 92.2437 -10.4563 -8.1983 -8.1241 13.7538 -0.9814 0.0000 0.0000 26.9824 2.6331 -25.0796 -1.1168 7.1250 -0.0000 -0.0000 32.4537 -51.9727 -6.1042
0.00 0.00 0.00 -53.0895 -79.3032 59.1351 0.0000 0.0000 0.0000 -2.0282 -10.2932 -32.3235 6.3253 14.7363 46.2736 0.2391 0.3788 -9.3817 0.5878 -4.9086 -13.6480 0.0000 0.0000 0.0000 35.8634 5.5846 -1.9888 -0.4963 -4.5167 12.5350 -0.2521 -6.3642 -13.9070 -0.6694 -5.2320 14.5715 5.9027 1.7320 -1.0687 4.3166 2.1093 -0.0592 1.1699 1.0191 0.5932 -5.0469 -2.7251 -12.5676 3.0289 -3.3687 16.4739 1.4770 -1.6943 7.2609 0.0000 -0.0000 0.0000 -81.2634 16.5375 -23.6297 10.6841 -17.8024 -1.6781 -0.0000 -0.0000 29.0264 7.6801 20.5706 2.7128 -7.1250 0.0000 -0.0000 -20.4563 49.5829 -2.4014 0.0000 -0.0000 0.0000 88.5916 -6.5895 -2.8027 -7.5521 12.8243 -0.8499 0.0000 0.0000 31.4277 -2.0804 -24.8630 0.8750 7.1250 -0.0000 -0.0000 27.9909 -52.5880 -5.5811
0.00 0.00 0.00 -62.3220 -79.8893 69.5272 0.0000 0.0000 0.0000 -1.0175 -10.8323 -32.9704 2.7445 10.2694 29.8537 0.1346 2.8072 -8.5546 0.6161 -5.0233 -13.9751 0.0000 0.0000 0.0000 36.1386 4.9207 -0.0767 -0.4745 -4.4178 12.2552 -0.4374 -4.5606 -15.0050 -0.4455 -4.2826 11.8732 6.3591 2.1688 -1.6664 4.0839 2.6540 -0.4311 0.7048 1.2865 0.5893 -4.9690 -2.6957 -12.1779 2.3379 -3.2521 16.7297 1.2542 -1.7049 7.2588 0.0000 0.0000 0.0000 -80.9888 15.4125 -30.4461 9.4008 -15.7968 -1.3071 -0.0000 -0.0000 36.2076 9.9644 21.7744 3.7288 -7.1250 0.0000 -0.0000 -18.8781 51.0736 -2.9132 0.0000 0.0000 0.0000 84.9696 -2.6604 0.9627 -8.1799 13.8440 -0.9947 0.0000 0.0000 27.7874 -7.9365 -26.3257 3.5378 7.1250 -0.0000 -0.0000 23.3413 -54.9603 -5.9495
